<svg width="24" height="25" viewBox="0 0 24 25" fill="none" xmlns="http://www.w3.org/2000/svg">
<mask id="mask0_85_2271" style="mask-type:alpha" maskUnits="userSpaceOnUse" x="0" y="0" width="24" height="25">
<rect y="0.5" width="24" height="24" fill="#D9D9D9"/>
</mask>
<g mask="url(#mask0_85_2271)">
<path d="M12 22.5C10.5945 22.5 9.28342 22.2431 8.06675 21.7293C6.85008 21.2153 5.79175 20.5083 4.89175 19.6083C3.99175 18.7083 3.28475 17.6499 2.77075 16.4333C2.25692 15.2166 2 13.9055 2 12.5C2 11.1055 2.25692 9.79995 2.77075 8.58328C3.28475 7.36661 3.99175 6.30828 4.89175 5.40828C5.79175 4.50828 6.85008 3.79861 8.06675 3.27928C9.28342 2.75978 10.5945 2.50003 12 2.50003C13.1945 2.50003 14.3139 2.68611 15.3583 3.05828C16.4028 3.43061 17.35 3.94453 18.2 4.60003L17 5.80828C16.3 5.28611 15.5306 4.88195 14.6918 4.59578C13.8527 4.30978 12.9555 4.16678 12 4.16678C9.65 4.16678 7.67358 4.96811 6.07075 6.57078C4.46808 8.17362 3.66675 10.15 3.66675 12.5C3.66675 14.85 4.46808 16.8264 6.07075 18.4293C7.67358 20.0319 9.65 20.8333 12 20.8333C12.5888 20.8333 13.1583 20.7778 13.7083 20.6668C14.2583 20.5556 14.7888 20.3917 15.3 20.175L16.55 21.45C15.8667 21.7834 15.1444 22.0417 14.3833 22.225C13.6223 22.4084 12.8278 22.5 12 22.5ZM19.1667 20.3333V17.3333H16.1668V15.6668H19.1667V12.6668H20.8333V15.6668H23.8333V17.3333H20.8333V20.3333H19.1667ZM10.55 17.0668L6.38325 12.8833L7.6 11.6668L10.55 14.6168L20.7833 4.37503L22.0168 5.59178L10.55 17.0668Z" fill="#0054A6"/>
</g>
</svg>
