<svg width="70" height="23" viewBox="0 0 70 23" fill="none" xmlns="http://www.w3.org/2000/svg">
<g clip-path="url(#clip0_16_81)">
<path d="M20.7723 22.8542C19.4602 22.6153 18.5243 22.1293 17.7134 21.2655C16.6521 20.1352 16.442 19.4881 16.319 16.9713L16.2017 14.5703L15.7803 15.9127C15.2722 17.5314 14.0637 19.2533 12.8587 20.075C11.0335 21.32 10.0958 21.5041 5.03422 21.6116L0.306152 21.7121V20.9996C0.306152 19.21 1.5315 17.2654 3.10222 16.5623C3.8723 16.2176 4.72772 16.1054 6.69212 16.0914L9.27106 16.0731L7.8705 15.6317C4.89857 14.695 3.20875 13.2424 2.21818 10.7729C1.75078 9.60746 1.67189 8.85536 1.586 4.74591L1.48797 0.0502777L2.48934 0.182678C4.08738 0.393958 5.6666 1.27711 6.40124 2.37032C7.0009 3.26267 7.07157 3.61546 7.18327 6.27523C7.27929 8.56129 7.3491 8.99892 7.50328 8.28141C7.85011 6.66747 8.61093 5.2321 9.76332 4.0177C11.7342 1.94073 14.023 1.34389 20.0499 1.33541L23.4605 1.33062L23.3089 2.42087C23.004 4.61364 21.5971 6.38631 19.7632 6.88844C19.2608 7.02597 17.9103 7.14192 16.762 7.14609L14.6743 7.15369L16.3004 7.70007C19.0191 8.61358 20.7853 10.3221 21.5826 12.8097C22.0269 14.196 22.3836 22.5377 22.0123 22.8563C21.894 22.9578 21.3361 22.9569 20.7723 22.8542ZM14.0167 15.4407C15.2373 14.8698 16.271 13.1589 16.271 11.7097C16.271 10.2916 15.9443 9.40554 15.0887 8.5037C12.3113 5.57568 7.28261 7.61619 7.34181 11.6472C7.39168 15.048 10.7617 16.9636 14.0166 15.441L14.0167 15.4407ZM31.6601 18.1819C31.1407 17.9912 30.4499 17.589 30.125 17.2882L29.5343 16.7411V17.3886C29.5343 18.012 29.4841 18.036 28.1834 18.036H26.8325V9.80444V1.57286H27.3919C28.8685 1.57286 29.7799 3.10088 29.7799 5.57631V7.17425L30.4553 6.70089C31.4846 5.97956 33.0303 5.60565 34.2378 5.78588C36.7791 6.16516 38.4284 7.9531 38.9371 10.881C39.4317 13.7272 38.2773 16.6777 36.1997 17.8776C35.1717 18.4713 32.869 18.6256 31.6601 18.1819ZM34.3604 15.9448C35.5314 15.3971 36.1659 14.0905 36.1659 12.2273C36.1659 9.67019 35.096 8.14032 33.1724 7.94737C30.9772 7.72708 29.6645 9.28965 29.6717 12.1142C29.6768 14.1108 30.272 15.3163 31.5621 15.9431C32.5822 16.4388 33.3032 16.4393 34.3604 15.9448ZM49.2441 18.2124C47.4145 17.5246 46.4753 15.926 46.824 14.0935C47.1756 12.2459 48.1344 11.6579 51.6879 11.1102C54.3339 10.7025 55.0783 10.336 55.0783 9.44128C55.0783 8.67163 54.2695 8.06898 53.062 7.93894C51.6909 7.79128 50.7386 8.1714 50.2173 9.07442C49.8347 9.73706 49.6835 9.80153 48.5081 9.80291C47.0682 9.8046 46.9713 9.64617 47.561 8.25489C48.6212 5.75394 53.7186 4.84072 56.3417 6.68183C57.5856 7.55494 57.7801 8.37049 57.7801 12.7139C57.7801 15.7303 57.8645 16.7682 58.1549 17.3216C58.361 17.7145 58.6649 18.0457 58.8303 18.0578C58.9957 18.0698 58.7513 18.1871 58.2873 18.3184C57.1747 18.6333 55.9165 18.3814 55.4711 17.7544L55.1127 17.2501L54.0381 17.7629C52.708 18.3976 50.3304 18.6205 49.2445 18.2123L49.2441 18.2124ZM53.3611 15.949C53.9081 15.7333 54.463 15.3591 54.5941 15.1176C54.8877 14.5768 54.9129 12.1479 54.6231 12.3246C54.5079 12.3948 53.596 12.5765 52.5968 12.7283C50.4261 13.058 49.9731 13.2675 49.6568 14.0881C49.3171 14.9686 49.598 15.6048 50.4965 15.9902C51.5229 16.4303 52.1644 16.4211 53.3611 15.949ZM62.815 18.2939C59.8426 17.5805 58.3657 15.2842 58.5661 11.6866C58.7243 8.84425 59.5891 7.34223 61.6616 6.30916C64.2342 5.02702 68.3794 6.01474 69.381 8.14851C70.2656 10.0331 70.2604 10.0464 68.6302 10.0464C67.2691 10.0464 67.1557 10.0035 67.0106 9.43365C66.8226 8.69513 65.5363 7.86963 64.5716 7.86839C62.738 7.86597 61.5215 9.16165 61.2911 11.362C61.101 13.1784 61.3672 14.2784 62.2321 15.2495C63.6922 16.8887 65.9912 16.5353 66.8894 14.5336C67.377 13.4472 67.3942 13.436 68.5841 13.436C69.2452 13.436 69.8343 13.5177 69.8932 13.6176C69.952 13.7174 69.8509 14.2957 69.6684 14.9025C68.8898 17.4921 65.8149 19.0139 62.815 18.2939ZM39.8501 11.9708V5.90557L41.1396 5.97875C42.3945 6.04997 42.4323 6.0736 42.5519 6.86079L42.6747 7.66964L43.2887 7.01116C44.0248 6.22175 45.2096 5.68878 46.2282 5.68878C46.9672 5.68878 46.9729 5.6991 46.9729 7.02036V8.35194H45.8762C45.0079 8.35194 44.6047 8.50319 43.9405 9.07806C42.8299 10.0393 42.5519 11.2241 42.5519 14.9961V18.0362H41.201H39.8501L39.8501 11.9708Z" fill="#EB078E"/>
</g>
<defs>
<clipPath id="clip0_16_81">
<rect width="70" height="23" fill="white"/>
</clipPath>
</defs>
</svg>
