<svg width="24" height="25" viewBox="0 0 24 25" fill="none" xmlns="http://www.w3.org/2000/svg">
<mask id="mask0_85_2308" style="mask-type:alpha" maskUnits="userSpaceOnUse" x="0" y="0" width="24" height="25">
<rect y="0.5" width="24" height="24" fill="#D9D9D9"/>
</mask>
<g mask="url(#mask0_85_2308)">
<path d="M16.5001 10.25C16.0722 10.25 15.7153 10.1069 15.4293 9.82072C15.1431 9.53472 15.0001 9.1778 15.0001 8.74997C15.0001 8.32214 15.1431 7.96522 15.4293 7.67922C15.7153 7.39305 16.0722 7.24997 16.5001 7.24997C16.9279 7.24997 17.2848 7.39305 17.5708 7.67922C17.857 7.96522 18.0001 8.32214 18.0001 8.74997C18.0001 9.1778 17.857 9.53472 17.5708 9.82072C17.2848 10.1069 16.9279 10.25 16.5001 10.25ZM7.50005 10.25C7.07222 10.25 6.7153 10.1069 6.4293 9.82072C6.14313 9.53472 6.00005 9.1778 6.00005 8.74997C6.00005 8.32214 6.14313 7.96522 6.4293 7.67922C6.7153 7.39305 7.07222 7.24997 7.50005 7.24997C7.92788 7.24997 8.2848 7.39305 8.5708 7.67922C8.85697 7.96522 9.00005 8.32214 9.00005 8.74997C9.00005 9.1778 8.85697 9.53472 8.5708 9.82072C8.2848 10.1069 7.92788 10.25 7.50005 10.25ZM12.0001 13C11.5722 13 11.2153 12.8569 10.9293 12.5707C10.6431 12.2847 10.5001 11.9278 10.5001 11.5C10.5001 11.0721 10.6431 10.7152 10.9293 10.4292C11.2153 10.1431 11.5722 9.99997 12.0001 9.99997C12.4279 9.99997 12.7848 10.1431 13.0708 10.4292C13.357 10.7152 13.5001 11.0721 13.5001 11.5C13.5001 11.9278 13.357 12.2847 13.0708 12.5707C12.7848 12.8569 12.4279 13 12.0001 13ZM12.0001 7.49997C11.5722 7.49997 11.2153 7.35689 10.9293 7.07072C10.6431 6.78472 10.5001 6.4278 10.5001 5.99997C10.5001 5.57214 10.6431 5.21522 10.9293 4.92922C11.2153 4.64305 11.5722 4.49997 12.0001 4.49997C12.4279 4.49997 12.7848 4.64305 13.0708 4.92922C13.357 5.21522 13.5001 5.57214 13.5001 5.99997C13.5001 6.4278 13.357 6.78472 13.0708 7.07072C12.7848 7.35689 12.4279 7.49997 12.0001 7.49997ZM12.0001 20.5C11.6779 20.5 11.3487 20.475 11.0126 20.425C10.6764 20.375 10.35 20.3083 10.0333 20.225V16.6332C10.0333 16.0499 10.2208 15.5486 10.5958 15.1292C10.9708 14.7097 11.4389 14.5 12.0001 14.5C12.5612 14.5 13.0293 14.7097 13.4043 15.1292C13.7793 15.5486 13.9668 16.0499 13.9668 16.6332V20.225C13.6501 20.3083 13.3237 20.375 12.9876 20.425C12.6514 20.475 12.3222 20.5 12.0001 20.5ZM8.5333 19.7167C8.21113 19.5834 7.89313 19.4334 7.5793 19.2667C7.2653 19.1001 6.96663 18.9167 6.6833 18.7167C6.21663 18.3944 5.8458 17.9666 5.5708 17.4332C5.2958 16.8999 5.1583 16.3277 5.1583 15.7167C5.1583 15.2834 5.1153 14.8736 5.0293 14.4875C4.94313 14.1013 4.7778 13.7416 4.5333 13.4082C4.35563 13.2027 4.03763 12.8819 3.5793 12.4457C3.12097 12.0097 2.70013 11.6001 2.3168 11.2167C2.11113 11.0001 2.0083 10.7584 2.0083 10.4917C2.0083 10.2251 2.11113 9.98889 2.3168 9.78322C2.53347 9.56655 2.7668 9.45822 3.0168 9.45822C3.2668 9.45822 3.50013 9.56655 3.7168 9.78322L7.5583 13.4082C7.88063 13.7082 8.12372 14.0652 8.28755 14.4792C8.45138 14.8931 8.5333 15.3166 8.5333 15.75V19.7167ZM15.4668 19.7167V15.75C15.4668 15.3166 15.564 14.8916 15.7583 14.475C15.9528 14.0583 16.2084 13.7027 16.5251 13.4082L20.2833 9.78322C20.4833 9.59989 20.7208 9.50822 20.9958 9.50822C21.2708 9.50822 21.5 9.59989 21.6833 9.78322C21.889 9.98889 21.9918 10.2251 21.9918 10.4917C21.9918 10.7584 21.889 11.0001 21.6833 11.2167C21.3 11.6001 20.8791 12.0028 20.4208 12.425C19.9625 12.8471 19.6445 13.1749 19.4668 13.4082C19.2223 13.7416 19.057 14.1013 18.9708 14.4875C18.8848 14.8736 18.8418 15.2834 18.8418 15.7167C18.8418 16.3277 18.7043 16.9013 18.4293 17.4375C18.1543 17.9736 17.7806 18.4028 17.3083 18.725C17.0306 18.9083 16.7348 19.0861 16.4208 19.2582C16.107 19.4306 15.789 19.5834 15.4668 19.7167Z" fill="#0054A6"/>
</g>
</svg>
