<svg width="24" height="25" viewBox="0 0 24 25" fill="none" xmlns="http://www.w3.org/2000/svg">
<mask id="mask0_85_2247" style="mask-type:alpha" maskUnits="userSpaceOnUse" x="0" y="0" width="24" height="25">
<rect y="0.5" width="24" height="24" fill="#D9D9D9"/>
</mask>
<g mask="url(#mask0_85_2247)">
<path d="M7.98325 18.3333H16.0167V16.6668H7.98325V18.3333ZM7.98325 14.1668H16.0167V12.5H7.98325V14.1668ZM5.66675 22.5C5.21675 22.5 4.82642 22.3348 4.49575 22.0043C4.16525 21.6736 4 21.2833 4 20.8333V4.16678C4 3.71678 4.16525 3.32645 4.49575 2.99578C4.82642 2.66528 5.21675 2.50003 5.66675 2.50003H14.35L20 8.15003V20.8333C20 21.2833 19.8347 21.6736 19.5042 22.0043C19.1736 22.3348 18.7832 22.5 18.3333 22.5H5.66675ZM13.5167 8.93328H18.3333L13.5167 4.16678V8.93328Z" fill="#0054A6"/>
</g>
</svg>
