<svg width="24" height="25" viewBox="0 0 24 25" fill="none" xmlns="http://www.w3.org/2000/svg">
<mask id="mask0_85_2199" style="mask-type:alpha" maskUnits="userSpaceOnUse" x="0" y="0" width="24" height="25">
<rect y="0.5" width="24" height="24" fill="#D9D9D9"/>
</mask>
<g mask="url(#mask0_85_2199)">
<path d="M15.5 20.4917L11.4168 16.4082L12.6 15.225L15.5 18.125L21.3668 12.2582L22.55 13.4417L15.5 20.4917ZM21 10.2832H19.3333V5.16672H17.6668V7.66672H6.33325V5.16672H4.66675V19.8332H10.85V21.5H4.66675C4.19442 21.5 3.79858 21.3402 3.47925 21.0207C3.15975 20.7014 3 20.3056 3 19.8332V5.16672C3 4.69439 3.15975 4.29855 3.47925 3.97922C3.79858 3.65972 4.19442 3.49997 4.66675 3.49997H9.425C9.56383 2.91664 9.87492 2.43747 10.3583 2.06247C10.8416 1.68747 11.3888 1.49997 12 1.49997C12.6222 1.49997 13.1736 1.68747 13.6543 2.06247C14.1347 2.43747 14.4444 2.91664 14.5833 3.49997H19.3333C19.8056 3.49997 20.2014 3.65972 20.5208 3.97922C20.8403 4.29855 21 4.69439 21 5.16672V10.2832ZM12 5.16672C12.2833 5.16672 12.5208 5.07089 12.7125 4.87922C12.9042 4.68755 13 4.45005 13 4.16672C13 3.88339 12.9042 3.64589 12.7125 3.45422C12.5208 3.26255 12.2833 3.16672 12 3.16672C11.7167 3.16672 11.4792 3.26255 11.2875 3.45422C11.0958 3.64589 11 3.88339 11 4.16672C11 4.45005 11.0958 4.68755 11.2875 4.87922C11.4792 5.07089 11.7167 5.16672 12 5.16672Z" fill="#0054A6"/>
</g>
</svg>
