<svg width="20" height="26" viewBox="0 0 20 26" fill="none" xmlns="http://www.w3.org/2000/svg">
<path d="M16.8608 14.6558C16.8608 20.0346 11.3516 23.3484 10.2067 23.9795C10.1433 24.0145 10.072 24.0329 9.99961 24.0329C9.92718 24.0329 9.85593 24.0145 9.79251 23.9795C8.64676 23.3484 3.13928 20.0346 3.13928 14.6558C3.13928 10.3678 5.71207 7.36621 10 7.36621C14.288 7.36621 16.8608 10.3678 16.8608 14.6558Z" stroke="white" stroke-width="1.4" stroke-linecap="round" stroke-linejoin="round"/>
<path d="M6.5697 14.2273C6.5697 15.137 6.93112 16.0096 7.57444 16.6529C8.21776 17.2962 9.09029 17.6576 10.0001 17.6576C10.9099 17.6576 11.7824 17.2962 12.4257 16.6529C13.069 16.0096 13.4305 15.137 13.4305 14.2273C13.4305 13.3175 13.069 12.4449 12.4257 11.8016C11.7824 11.1583 10.9099 10.7969 10.0001 10.7969C9.09029 10.7969 8.21776 11.1583 7.57444 11.8016C6.93112 12.4449 6.5697 13.3175 6.5697 14.2273V14.2273Z" stroke="white" stroke-width="1.4" stroke-linecap="round" stroke-linejoin="round"/>
</svg>
