<svg width="19" height="15" viewBox="0 0 19 15" fill="none" xmlns="http://www.w3.org/2000/svg">
<path d="M12.8767 0.247382V0.244141H13.7207L14.029 0.305733C14.2346 0.345719 14.4213 0.398121 14.589 0.462954C14.7567 0.527788 14.9191 0.603432 15.0759 0.689872C15.2328 0.776311 15.3751 0.864388 15.5028 0.954069C15.6294 1.04268 15.743 1.13669 15.8437 1.2361C15.9432 1.33659 16.0985 1.36252 16.3095 1.3139C16.5205 1.26527 16.7477 1.19773 16.9912 1.11129C17.2346 1.02485 17.4754 0.927601 17.7135 0.819539C17.9515 0.711478 18.0965 0.642867 18.1485 0.613692C18.1993 0.583447 18.2264 0.567239 18.2296 0.565067L18.2328 0.560205L18.2491 0.5521L18.2653 0.543996L18.2815 0.535892L18.2978 0.527788L18.301 0.522925L18.3059 0.519684L18.3108 0.516442L18.314 0.511579L18.3302 0.506717L18.3465 0.503475L18.3432 0.527788L18.3383 0.5521L18.3302 0.576413L18.3221 0.600726L18.314 0.616934L18.3059 0.633142L18.2978 0.657455C18.2924 0.673663 18.287 0.695269 18.2815 0.722289C18.2761 0.749308 18.2247 0.857353 18.1273 1.04646C18.03 1.23556 17.9082 1.42735 17.7621 1.62186C17.6161 1.81636 17.4851 1.9633 17.3694 2.06272C17.2525 2.16322 17.1751 2.23345 17.1373 2.27343C17.0994 2.31449 17.0534 2.3523 16.9993 2.38689L16.9181 2.44038L16.9019 2.44848L16.8857 2.45659L16.8824 2.46145L16.8776 2.46469L16.8727 2.46793L16.8694 2.4728L16.8532 2.4809L16.837 2.48901L16.8338 2.49387L16.8289 2.49711L16.824 2.50035L16.8208 2.50521L16.8175 2.51008L16.8126 2.51332L16.8078 2.51656L16.8045 2.52142H16.8857L17.3401 2.42417C17.6431 2.35934 17.9326 2.281 18.2085 2.18915L18.6467 2.04327L18.6954 2.02707L18.7198 2.01896L18.736 2.01086L18.7522 2.00275L18.7685 1.99465L18.7847 1.98654L18.8171 1.98168L18.8496 1.97844V2.01086L18.8415 2.0141L18.8334 2.01896L18.8301 2.02382L18.8253 2.02707L18.8204 2.03031L18.8171 2.03517L18.8139 2.04003L18.809 2.04327L18.8042 2.04652L18.8009 2.05138L18.7977 2.05624L18.7928 2.05948L18.7847 2.07569L18.7766 2.0919L18.7717 2.09514C18.7695 2.09838 18.7008 2.19022 18.5656 2.37068C18.4303 2.55222 18.3573 2.64405 18.3465 2.64623C18.3356 2.64947 18.3205 2.66568 18.301 2.69485C18.2826 2.7251 18.1679 2.84559 17.9569 3.0563C17.7459 3.26701 17.5393 3.45448 17.3369 3.61873C17.1335 3.78406 17.0307 3.9872 17.0285 4.22817C17.0253 4.46805 17.0128 4.73928 16.9912 5.04183C16.9695 5.34439 16.929 5.67125 16.8694 6.02244C16.8099 6.37363 16.718 6.77073 16.5935 7.21376C16.4691 7.65678 16.3176 8.08901 16.1391 8.51043C15.9605 8.93185 15.7739 9.31004 15.5791 9.64502C15.3843 9.98 15.2058 10.2636 15.0435 10.496C14.8812 10.7283 14.7162 10.9471 14.5484 11.1524C14.3807 11.3577 14.1687 11.589 13.9122 11.8461C13.6547 12.1022 13.514 12.2427 13.4902 12.2675C13.4653 12.2913 13.3593 12.3799 13.1721 12.5334C12.986 12.6879 12.7858 12.8424 12.5715 12.9969C12.3584 13.1504 12.1625 13.2784 11.984 13.3811C11.8054 13.4837 11.5901 13.6009 11.338 13.7328C11.087 13.8657 10.8153 13.9889 10.5232 14.1023C10.231 14.2158 9.92265 14.3211 9.59803 14.4184C9.27341 14.5156 8.95962 14.5913 8.65664 14.6453C8.35368 14.6993 8.01012 14.7453 7.62598 14.7831L7.04979 14.8398V14.8479H5.99479V14.8398L5.85682 14.8317C5.76486 14.8263 5.68911 14.8209 5.62959 14.8155C5.57009 14.8101 5.34555 14.7804 4.95601 14.7264C4.56647 14.6723 4.2608 14.6183 4.03897 14.5643C3.81716 14.5102 3.48712 14.4076 3.04889 14.2563C2.61066 14.105 2.23572 13.9521 1.92409 13.7976C1.61355 13.6442 1.41878 13.5469 1.33978 13.5059C1.26187 13.4659 1.17423 13.4162 1.07684 13.3567L0.930764 13.2676L0.927534 13.2627L0.922648 13.2595L0.917779 13.2563L0.914533 13.2514L0.898302 13.2433L0.882071 13.2352L0.878841 13.2303L0.873956 13.2271L0.869086 13.2238L0.86584 13.219L0.86261 13.2141L0.857725 13.2109H0.849609V13.1785L0.86584 13.1817L0.882071 13.1866L0.95511 13.1947C1.0038 13.2001 1.13636 13.2082 1.35277 13.219C1.56919 13.2298 1.79911 13.2298 2.04258 13.219C2.28604 13.2082 2.53492 13.1838 2.78919 13.146C3.04348 13.1082 3.34375 13.0434 3.69001 12.9515C4.03627 12.8597 4.3544 12.7505 4.6444 12.6241C4.9333 12.4966 5.13888 12.4015 5.26117 12.3389C5.38235 12.2773 5.56738 12.1627 5.81625 11.9952L6.18956 11.744L6.1928 11.7391L6.19767 11.7359L6.20256 11.7327L6.20579 11.7278L6.20903 11.7229L6.2139 11.7197L6.21879 11.7165L6.22202 11.7116L6.23825 11.7067L6.25448 11.7035L6.25772 11.6873L6.26259 11.6711L6.26748 11.6678L6.27071 11.663L6.14086 11.6549C6.0543 11.6495 5.97044 11.644 5.88928 11.6387C5.80813 11.6333 5.68099 11.6089 5.50786 11.5657C5.33474 11.5225 5.14809 11.4577 4.9479 11.3712C4.74772 11.2848 4.55295 11.1821 4.36359 11.0633C4.17424 10.9444 4.03735 10.8455 3.95295 10.7666C3.86963 10.6888 3.76142 10.5786 3.62833 10.436C3.49632 10.2923 3.38162 10.1448 3.28424 9.9935C3.18685 9.84223 3.0938 9.66769 3.00508 9.46997L2.87035 9.17497L2.86223 9.15066L2.85412 9.12635L2.84925 9.11014L2.846 9.09393L2.87035 9.09717L2.8947 9.10204L3.07323 9.12635C3.19227 9.14256 3.37893 9.14795 3.6332 9.14256C3.88749 9.13716 4.06332 9.12635 4.1607 9.11014C4.25809 9.09393 4.3176 9.08312 4.33924 9.07772L4.3717 9.06962L4.41228 9.06151L4.45286 9.05341L4.4561 9.04855L4.46097 9.04531L4.46586 9.04206L4.46909 9.0372L4.43662 9.0291L4.40416 9.02099L4.3717 9.01289L4.33924 9.00479L4.30678 8.99668C4.28514 8.99128 4.24728 8.98047 4.19316 8.96426C4.13906 8.94806 3.99299 8.88862 3.75493 8.78597C3.51689 8.68332 3.32752 8.58337 3.18685 8.48612C3.04583 8.38858 2.91137 8.28192 2.78433 8.16681C2.65772 8.05011 2.51869 7.89991 2.36719 7.71622C2.21571 7.53253 2.08046 7.31911 1.96142 7.07598C1.8424 6.83286 1.75313 6.60054 1.69361 6.37902C1.63433 6.15881 1.59522 5.93366 1.57677 5.70637L1.54754 5.366L1.56377 5.36924L1.58 5.3741L1.59623 5.38221L1.61246 5.39031L1.62869 5.39841L1.64492 5.40652L1.8965 5.51998C2.06423 5.59562 2.27252 5.66046 2.52139 5.71448C2.77027 5.7685 2.91904 5.79823 2.96773 5.80362L3.04077 5.81173H3.18685L3.18362 5.80687L3.17873 5.80362L3.17387 5.80038L3.17062 5.79552L3.16739 5.79066L3.1625 5.78742L3.15763 5.78417L3.15439 5.77931L3.13816 5.77121L3.12193 5.7631L3.1187 5.75824L3.11381 5.755L3.10894 5.75176L3.1057 5.7469L3.08947 5.73879L3.07323 5.73069L3.07 5.72582C3.06676 5.72365 3.02022 5.68908 2.9304 5.62209C2.84167 5.55402 2.74862 5.46595 2.65123 5.35789C2.55385 5.24983 2.45646 5.13637 2.35908 5.01752C2.26151 4.89839 2.17461 4.77093 2.09938 4.63662C2.02365 4.50155 1.94357 4.32973 1.85917 4.12119C1.77585 3.91372 1.71255 3.70464 1.66927 3.49393C1.626 3.28322 1.60165 3.07521 1.59623 2.8699C1.59082 2.66459 1.59623 2.48901 1.61246 2.34313C1.62869 2.19725 1.66115 2.03246 1.70984 1.84877C1.75854 1.66508 1.82888 1.47058 1.92084 1.26527L2.05881 0.957311L2.06692 0.932998L2.07504 0.908685L2.07992 0.905444L2.08315 0.900581L2.0864 0.895719L2.09127 0.892477L2.09615 0.895719L2.09938 0.900581L2.10263 0.905444L2.1075 0.908685L2.11238 0.911927L2.11561 0.91679L2.11886 0.921652L2.12373 0.924894L2.13185 0.941102L2.13996 0.957311L2.14485 0.960552L2.14808 0.965415L2.36719 1.20854C2.51327 1.37063 2.6864 1.55162 2.88658 1.75152C3.08677 1.95142 3.19768 2.05515 3.21931 2.06272C3.24096 2.07136 3.268 2.09621 3.30047 2.13728C3.33293 2.17727 3.44114 2.2729 3.62508 2.42417C3.80904 2.57544 4.0498 2.75105 4.34736 2.95094C4.64493 3.15084 4.97495 3.34805 5.33744 3.54255C5.69994 3.73705 6.08948 3.91264 6.50606 4.06932C6.92265 4.22601 7.21481 4.32866 7.38252 4.37729C7.55025 4.42591 7.83699 4.48804 8.24276 4.56368C8.64853 4.63933 8.95422 4.68795 9.1598 4.70956C9.36539 4.73116 9.50607 4.74359 9.5818 4.74684L9.69542 4.75008L9.69219 4.72577L9.6873 4.70145L9.65484 4.49885C9.6332 4.36378 9.62238 4.17468 9.62238 3.93155C9.62238 3.68843 9.64132 3.46422 9.67919 3.2589C9.71707 3.05359 9.77388 2.84559 9.84961 2.63488C9.92536 2.42417 9.99949 2.25505 10.072 2.12756C10.1456 2.00113 10.2419 1.85688 10.3609 1.69479C10.4799 1.53271 10.6341 1.36523 10.8235 1.19233C11.0128 1.01944 11.2292 0.865458 11.4727 0.730393C11.7162 0.595328 11.9407 0.492664 12.1463 0.422433C12.3519 0.352202 12.525 0.306267 12.6657 0.284662C12.8063 0.263056 12.8767 0.250624 12.8767 0.247382Z" fill="white"/>
</svg>
