<svg width="21" height="15" viewBox="0 0 21 15" fill="none" xmlns="http://www.w3.org/2000/svg">
<path d="M11.2882 14.5261L7.22605 14.4501C5.9108 14.4237 4.59228 14.4765 3.30282 14.2024C1.34126 13.7929 1.20229 11.785 1.05688 10.1008C0.856519 7.73292 0.934085 5.3221 1.31219 2.97403C1.52565 1.65651 2.36568 0.870341 3.66476 0.78479C8.05011 0.474315 12.4646 0.51111 16.8403 0.655958C17.3024 0.669236 17.7677 0.741812 18.2234 0.824423C20.4727 1.22734 20.5275 3.50274 20.6733 5.41819C20.8187 7.35342 20.7573 9.29857 20.4794 11.2206C20.2564 12.812 19.8298 14.1466 18.0294 14.2754C15.7737 14.4439 13.5697 14.5795 11.3076 14.5363C11.3077 14.5261 11.2947 14.5261 11.2882 14.5261ZM8.90006 10.4971C10.6 9.49968 12.2674 8.51889 13.9576 7.52817C12.2545 6.53076 10.5902 5.54997 8.90006 4.55924V10.4971Z" fill="white"/>
</svg>
